<svg width="48" height="64" viewBox="0 0 48 64" fill="none" xmlns="http://www.w3.org/2000/svg">
<rect width="48" height="64" rx="8" fill="white"/>
<path fill-rule="evenodd" clip-rule="evenodd" d="M40.6765 19.767C41.4063 20.4744 42.5853 20.4744 43.2702 19.767C44 19.0597 44 17.993 43.2702 17.2856C42.574 16.5783 41.4063 16.5783 40.6765 17.2856C39.9804 17.993 39.9804 19.0597 40.6765 19.767M32.9965 12.3453C33.7263 13.0526 34.9053 13.0526 35.5902 12.3453C36.32 11.6379 36.32 10.5712 35.5902 9.86387C34.894 9.1565 33.7263 9.1565 32.9965 9.86387C32.3116 10.5712 32.3116 11.6267 32.9965 12.3453M34.6919 25.5607C35.4218 26.2681 36.6007 26.2681 37.2856 25.5607C38.0154 24.8533 38.0154 23.7867 37.2856 23.0793C36.5895 22.3719 35.4218 22.3719 34.6919 23.0793C33.9958 23.7867 33.9958 24.8533 34.6919 25.5607M19.4218 28.8056L19.0961 30.1081C18.9726 30.6021 18.4786 30.9277 17.9621 30.8154C17.6365 30.7481 17.3109 30.7144 17.0189 30.7144C15.4919 30.7144 14.4028 31.7474 14.4028 33.5776V39.4386H12V28.7832H14.3804V29.9846C15.1102 28.9628 16.233 28.5025 17.5691 28.5025C18.2989 28.5137 18.8716 28.6035 19.4218 28.8056M26.1586 30.9053V39.4498H23.7446V30.9053H22.0828C21.5888 30.9053 21.1846 30.5123 21.1846 30.0407V28.7944H23.7446V26.3018C23.7446 24.1684 24.8561 22.4618 27.4274 22.4618C28.7298 22.4618 29.6618 22.7874 30.4926 23.259L29.9986 25.2126C29.4372 24.8983 28.3256 24.64 27.5846 24.64C26.6526 24.64 26.1474 25.2239 26.1474 26.2905V28.7832H29.9088V30.894H26.1586V30.9053Z" fill="#ED1A5D"/>
</svg>
